<?xml version="1.0" encoding="UTF-8" standalone="no"?><!-- Generator: Gravit.io --><svg xmlns="http://www.w3.org/2000/svg" xmlns:xlink="http://www.w3.org/1999/xlink" style="isolation:isolate" viewBox="0 0 1024 1024" width="1024pt" height="1024pt"><defs><clipPath id="_clipPath_ZepU8AHJsi52HAzaK9K7qNy43xk5AD32"><rect width="1024" height="1024"/></clipPath></defs><g clip-path="url(#_clipPath_ZepU8AHJsi52HAzaK9K7qNy43xk5AD32)"><rect width="1024" height="1024" style="fill:rgb(0,0,0)" fill-opacity="0"/><g><defs><filter id="h96WTH9Fwj3m622q3Se2bIXAkFqkgcKN" x="-200%" y="-200%" width="400%" height="400%" filterUnits="objectBoundingBox" color-interpolation-filters="sRGB"><feGaussianBlur xmlns="http://www.w3.org/2000/svg" in="SourceGraphic" stdDeviation="0"/><feOffset xmlns="http://www.w3.org/2000/svg" dx="0" dy="0" result="pf_100_offsetBlur"/><feFlood xmlns="http://www.w3.org/2000/svg" flood-color="#FFFFFF" flood-opacity="1"/><feComposite xmlns="http://www.w3.org/2000/svg" in2="pf_100_offsetBlur" operator="in" result="pf_100_dropShadow"/><feBlend xmlns="http://www.w3.org/2000/svg" in="SourceGraphic" in2="pf_100_dropShadow" mode="normal"/></filter></defs><g filter="url(#h96WTH9Fwj3m622q3Se2bIXAkFqkgcKN)"><path d=" M 443.061 699.94 C 401.389 713.29 367.525 745.943 341.429 797.865 L 354.441 896.324 C 385.255 855.159 427.589 821.344 460.853 806.659 L 443.061 699.94 Z " fill="rgb(0,0,0)" vector-effect="non-scaling-stroke" stroke-width="10" stroke="rgb(255,255,255)" stroke-linejoin="miter" stroke-linecap="round" stroke-miterlimit="3"/></g><defs><filter id="9BGvltO86i8LQeHn0PwgSHNYtmU7e5kF" x="-200%" y="-200%" width="400%" height="400%" filterUnits="objectBoundingBox" color-interpolation-filters="sRGB"><feGaussianBlur xmlns="http://www.w3.org/2000/svg" in="SourceGraphic" stdDeviation="0"/><feOffset xmlns="http://www.w3.org/2000/svg" dx="0" dy="0" result="pf_100_offsetBlur"/><feFlood xmlns="http://www.w3.org/2000/svg" flood-color="#FFFFFF" flood-opacity="1"/><feComposite xmlns="http://www.w3.org/2000/svg" in2="pf_100_offsetBlur" operator="in" result="pf_100_dropShadow"/><feBlend xmlns="http://www.w3.org/2000/svg" in="SourceGraphic" in2="pf_100_dropShadow" mode="normal"/></filter></defs><g filter="url(#9BGvltO86i8LQeHn0PwgSHNYtmU7e5kF)"><path d=" M 423.255 665.659 C 388.396 672.482 358.007 695.607 332.059 735.001 L 333.242 815.612 C 359.255 782.659 401.049 753.354 429.255 744.659 L 423.255 665.659 Z " fill="rgb(0,0,0)" vector-effect="non-scaling-stroke" stroke-width="10" stroke="rgb(255,255,255)" stroke-linejoin="miter" stroke-linecap="round" stroke-miterlimit="3"/></g><defs><filter id="1lv0Ev3TRjQpCto1LlI0cUbAXSSrg5yO" x="-200%" y="-200%" width="400%" height="400%" filterUnits="objectBoundingBox" color-interpolation-filters="sRGB"><feGaussianBlur xmlns="http://www.w3.org/2000/svg" in="SourceGraphic" stdDeviation="0"/><feOffset xmlns="http://www.w3.org/2000/svg" dx="0" dy="0" result="pf_100_offsetBlur"/><feFlood xmlns="http://www.w3.org/2000/svg" flood-color="#FFFFFF" flood-opacity="1"/><feComposite xmlns="http://www.w3.org/2000/svg" in2="pf_100_offsetBlur" operator="in" result="pf_100_dropShadow"/><feBlend xmlns="http://www.w3.org/2000/svg" in="SourceGraphic" in2="pf_100_dropShadow" mode="normal"/></filter></defs><g filter="url(#1lv0Ev3TRjQpCto1LlI0cUbAXSSrg5yO)"><path d=" M 367.782 644.956 L 300.255 665.659 Q 326.972 683.221 328.614 689.44 Q 330.255 695.659 321.255 753.659 C 339.573 742.051 372.603 707.081 394.255 702.659 L 367.782 644.956 Z " fill="rgb(0,0,0)" vector-effect="non-scaling-stroke" stroke-width="10" stroke="rgb(255,255,255)" stroke-linejoin="miter" stroke-linecap="round" stroke-miterlimit="3"/></g><defs><filter id="4EyB4H2RIU7UISjlG2VMUztNCt7n4u42" x="-200%" y="-200%" width="400%" height="400%" filterUnits="objectBoundingBox" color-interpolation-filters="sRGB"><feGaussianBlur xmlns="http://www.w3.org/2000/svg" in="SourceGraphic" stdDeviation="0"/><feOffset xmlns="http://www.w3.org/2000/svg" dx="0" dy="0" result="pf_100_offsetBlur"/><feFlood xmlns="http://www.w3.org/2000/svg" flood-color="#FFFFFF" flood-opacity="1"/><feComposite xmlns="http://www.w3.org/2000/svg" in2="pf_100_offsetBlur" operator="in" result="pf_100_dropShadow"/><feBlend xmlns="http://www.w3.org/2000/svg" in="SourceGraphic" in2="pf_100_dropShadow" mode="normal"/></filter></defs><g filter="url(#4EyB4H2RIU7UISjlG2VMUztNCt7n4u42)"><path d=" M 821.255 788.659 C 779.755 702.159 718.255 693.784 705.255 655.659 C 768.505 676.909 767.755 649.159 849.255 690.659 C 826.162 623.965 761.755 572.159 688.255 562.659 C 704.005 551.159 753.505 512.659 845.255 503.659 C 748.255 427.159 674.005 505.971 608.255 467.659 C 551.178 434.4 488.556 414.969 470.486 423.251 C 511.129 477.194 477.293 544.021 435.156 583.257 L 387.212 683.548 Q 390.734 757.855 412.531 798.132 C 434.439 838.614 480.505 928.909 493.255 1002.659 C 546.505 949.159 521.005 885.909 518.255 834.659 C 548.005 852.909 530.005 910.159 643.255 941.659 C 606.88 885.784 625.13 857.935 608.255 806.659 C 668.255 844.185 699.509 836.694 746.255 871.659 C 743.592 814.347 687.073 790.648 671.255 741.659 C 716.505 767.909 760.63 765.409 821.255 788.659 Z " fill="rgb(0,0,0)" vector-effect="non-scaling-stroke" stroke-width="10" stroke="rgb(255,255,255)" stroke-linejoin="miter" stroke-linecap="round" stroke-miterlimit="3"/></g><defs><filter id="CGE6uHwwkjhWt4lKjmgDBQ6NoVqFMazt" x="-200%" y="-200%" width="400%" height="400%" filterUnits="objectBoundingBox" color-interpolation-filters="sRGB"><feGaussianBlur xmlns="http://www.w3.org/2000/svg" in="SourceGraphic" stdDeviation="0"/><feOffset xmlns="http://www.w3.org/2000/svg" dx="0" dy="0" result="pf_100_offsetBlur"/><feFlood xmlns="http://www.w3.org/2000/svg" flood-color="#FFFFFF" flood-opacity="1"/><feComposite xmlns="http://www.w3.org/2000/svg" in2="pf_100_offsetBlur" operator="in" result="pf_100_dropShadow"/><feBlend xmlns="http://www.w3.org/2000/svg" in="SourceGraphic" in2="pf_100_dropShadow" mode="normal"/></filter></defs><g filter="url(#CGE6uHwwkjhWt4lKjmgDBQ6NoVqFMazt)"><path d=" M 563.255 376.659 Q 686.255 361.659 849.255 411.659 Q 590.255 532.659 542.255 512.659 C 509.204 498.887 507.951 383.403 563.255 376.659 Z " fill="rgb(0,0,0)" vector-effect="non-scaling-stroke" stroke-width="10" stroke="rgb(255,255,255)" stroke-linejoin="miter" stroke-linecap="round" stroke-miterlimit="3"/></g><defs><filter id="AHlklTk7mhICw8i6oUuc3a3CMTLtVNga" x="-200%" y="-200%" width="400%" height="400%" filterUnits="objectBoundingBox" color-interpolation-filters="sRGB"><feGaussianBlur xmlns="http://www.w3.org/2000/svg" in="SourceGraphic" stdDeviation="0"/><feOffset xmlns="http://www.w3.org/2000/svg" dx="0" dy="0" result="pf_100_offsetBlur"/><feFlood xmlns="http://www.w3.org/2000/svg" flood-color="#FFFFFF" flood-opacity="1"/><feComposite xmlns="http://www.w3.org/2000/svg" in2="pf_100_offsetBlur" operator="in" result="pf_100_dropShadow"/><feBlend xmlns="http://www.w3.org/2000/svg" in="SourceGraphic" in2="pf_100_dropShadow" mode="normal"/></filter></defs><g filter="url(#AHlklTk7mhICw8i6oUuc3a3CMTLtVNga)"><mask id="_mask_LuwwWMZWZclmclJAbTma2j5CwHkhYpGz"><path d=" M 581.255 429.659 C 615.19 421.432 651.255 412.967 782.255 429.659 C 677.379 496.94 561.679 540.1 536.973 503.659 C 523.881 484.349 526.255 442.992 581.255 429.659 Z " fill="white" stroke="none"/></mask><path d=" M 581.255 429.659 C 615.19 421.432 651.255 412.967 782.255 429.659 C 677.379 496.94 561.679 540.1 536.973 503.659 C 523.881 484.349 526.255 442.992 581.255 429.659 Z " fill="rgb(0,0,0)" mask="url(#_mask_LuwwWMZWZclmclJAbTma2j5CwHkhYpGz)" vector-effect="non-scaling-stroke" stroke-width="20" stroke="rgb(255,255,255)" stroke-linejoin="bevel" stroke-linecap="butt" stroke-miterlimit="3"/><path d=" M 581.255 429.659 C 615.19 421.432 651.255 412.967 782.255 429.659 C 677.379 496.94 561.679 540.1 536.973 503.659 C 523.881 484.349 526.255 442.992 581.255 429.659 Z " fill="rgb(0,0,0)"/></g><defs><filter id="YtvKrzXKwu3mHpbqVYGxIPKLn2Z1zT7S" x="-200%" y="-200%" width="400%" height="400%" filterUnits="objectBoundingBox" color-interpolation-filters="sRGB"><feGaussianBlur xmlns="http://www.w3.org/2000/svg" in="SourceGraphic" stdDeviation="0"/><feOffset xmlns="http://www.w3.org/2000/svg" dx="0" dy="0" result="pf_100_offsetBlur"/><feFlood xmlns="http://www.w3.org/2000/svg" flood-color="#FFFFFF" flood-opacity="1"/><feComposite xmlns="http://www.w3.org/2000/svg" in2="pf_100_offsetBlur" operator="in" result="pf_100_dropShadow"/><feBlend xmlns="http://www.w3.org/2000/svg" in="SourceGraphic" in2="pf_100_dropShadow" mode="normal"/></filter></defs><g filter="url(#YtvKrzXKwu3mHpbqVYGxIPKLn2Z1zT7S)"><path d=" M 647.255 596.659 C 615.505 582.409 586.932 593.669 567.255 578.173 C 629.005 559.534 634.255 526.909 668.255 523.659 C 643.255 505.159 591.505 525.409 542.255 512.659 C 460.875 493.506 363.219 460.516 347.255 479.659 C 392.005 502.909 383.005 542.659 367.255 582.659 L 367.255 665.659 Q 393.557 714.581 421.21 734.694 C 449.005 754.909 468.161 776.245 473.255 821.659 C 488.644 798.768 495.321 769.146 493.255 734.694 C 520.703 760.21 542.005 754.909 567.255 783.659 C 584.38 740.659 546.88 706.909 542.255 690.659 C 588.505 714.034 605.38 691.909 647.255 690.659 C 627.005 652.909 589.687 665.329 563.255 637.421 C 593.005 634.534 621.505 609.409 647.255 596.659 Z " fill="rgb(0,0,0)" vector-effect="non-scaling-stroke" stroke-width="10" stroke="rgb(255,255,255)" stroke-linejoin="miter" stroke-linecap="round" stroke-miterlimit="3"/></g><defs><filter id="wEYg1tS1pKbHCyJTOvBpXrSbBuxGpUPj" x="-200%" y="-200%" width="400%" height="400%" filterUnits="objectBoundingBox" color-interpolation-filters="sRGB"><feGaussianBlur xmlns="http://www.w3.org/2000/svg" in="SourceGraphic" stdDeviation="0"/><feOffset xmlns="http://www.w3.org/2000/svg" dx="0" dy="0" result="pf_100_offsetBlur"/><feFlood xmlns="http://www.w3.org/2000/svg" flood-color="#FFFFFF" flood-opacity="1"/><feComposite xmlns="http://www.w3.org/2000/svg" in2="pf_100_offsetBlur" operator="in" result="pf_100_dropShadow"/><feBlend xmlns="http://www.w3.org/2000/svg" in="SourceGraphic" in2="pf_100_dropShadow" mode="normal"/></filter></defs><g filter="url(#wEYg1tS1pKbHCyJTOvBpXrSbBuxGpUPj)"><path d=" M 542.255 512.659 C 508.63 506.846 500.13 525.096 473.255 520.659 C 485.693 534.846 521.089 534.209 528.255 553.659 C 494.568 543.846 481.181 566.611 445.675 553.659 C 419.995 544.29 404.61 510.066 386.255 496.289 C 376.755 489.159 365.402 485.586 359.929 483.488 C 351.938 480.424 345.404 484.687 340.283 496.289 C 333.24 485.188 330.421 473.869 331.783 462.346 C 321.706 461.318 313.68 465.262 307.663 474.191 C 302.127 460.947 301.375 451.329 305.363 445.348 C 295.602 442.551 286.915 446.159 279.257 456.185 C 272.645 444.18 271.309 433.198 275.207 423.251 C 262.859 423.3 253.892 427.496 248.262 435.851 C 241.594 424.801 239.728 414.12 242.537 403.847 C 232.6 404.336 225.518 408.887 221.247 417.514 C 211.044 402.694 200.526 316.627 209.255 320.659 C 256.642 342.548 429.419 430.409 478.255 462.346 C 501.712 477.686 515.588 490.992 542.255 512.659 Z " fill="rgb(0,0,0)" vector-effect="non-scaling-stroke" stroke-width="10" stroke="rgb(255,255,255)" stroke-linejoin="miter" stroke-linecap="round" stroke-miterlimit="3"/></g><defs><filter id="7bQNYiQnn0XUZ9wa6dqQeE0eJoWT3gyZ" x="-200%" y="-200%" width="400%" height="400%" filterUnits="objectBoundingBox" color-interpolation-filters="sRGB"><feGaussianBlur xmlns="http://www.w3.org/2000/svg" in="SourceGraphic" stdDeviation="0"/><feOffset xmlns="http://www.w3.org/2000/svg" dx="0" dy="0" result="pf_100_offsetBlur"/><feFlood xmlns="http://www.w3.org/2000/svg" flood-color="#FFFFFF" flood-opacity="1"/><feComposite xmlns="http://www.w3.org/2000/svg" in2="pf_100_offsetBlur" operator="in" result="pf_100_dropShadow"/><feBlend xmlns="http://www.w3.org/2000/svg" in="SourceGraphic" in2="pf_100_dropShadow" mode="normal"/></filter></defs><g filter="url(#7bQNYiQnn0XUZ9wa6dqQeE0eJoWT3gyZ)"><path d=" M 372.032 312.659 C 401.556 170.767 485.473 50.051 536.973 21.341 C 509.677 90.588 501.947 127.451 503.287 163.545 C 482.877 143.006 470.183 153.323 464.93 167.845 C 459.677 182.367 475.741 204.426 501.292 186.549 C 504.413 202.901 503.482 230.566 493.18 244.47 C 466.877 193.356 449.948 270.942 466.887 317.209 L 372.032 312.659 Z " fill="rgb(0,0,0)" vector-effect="non-scaling-stroke" stroke-width="10" stroke="rgb(255,255,255)" stroke-linejoin="miter" stroke-linecap="round" stroke-miterlimit="3"/></g><defs><filter id="wRCMc2VI9d4oxajaD3QruPX2QS2Oznvk" x="-200%" y="-200%" width="400%" height="400%" filterUnits="objectBoundingBox" color-interpolation-filters="sRGB"><feGaussianBlur xmlns="http://www.w3.org/2000/svg" in="SourceGraphic" stdDeviation="0"/><feOffset xmlns="http://www.w3.org/2000/svg" dx="0" dy="0" result="pf_100_offsetBlur"/><feFlood xmlns="http://www.w3.org/2000/svg" flood-color="#FFFFFF" flood-opacity="1"/><feComposite xmlns="http://www.w3.org/2000/svg" in2="pf_100_offsetBlur" operator="in" result="pf_100_dropShadow"/><feBlend xmlns="http://www.w3.org/2000/svg" in="SourceGraphic" in2="pf_100_dropShadow" mode="normal"/></filter></defs><g filter="url(#wRCMc2VI9d4oxajaD3QruPX2QS2Oznvk)"><path d=" M 476.255 305.659 C 454.847 298.826 414.193 288.382 391.255 287.659 C 356.375 286.559 325.785 304.287 292.255 293.659 Q 237.004 276.145 204.255 245.659 Q 185.755 314.659 209.255 369.659 C 224.293 363.419 237.97 361.096 250.255 362.659 L 267.6 403.847 C 284.427 395.605 299.509 394.437 313.329 396.659 L 341.429 445.348 C 363.991 433.709 379.837 438.039 391.255 439.659 L 423.255 485.659 C 477.255 469.659 513.255 497.659 542.255 512.659 Q 498.255 446.659 567.255 376.659 C 559.057 354.222 523.255 320.659 476.255 305.659 Z " fill="rgb(0,0,0)" vector-effect="non-scaling-stroke" stroke-width="10" stroke="rgb(255,255,255)" stroke-linejoin="miter" stroke-linecap="round" stroke-miterlimit="3"/></g><defs><filter id="XM73uclmjR3089CqCsre5N5SewqbzXn9" x="-200%" y="-200%" width="400%" height="400%" filterUnits="objectBoundingBox" color-interpolation-filters="sRGB"><feGaussianBlur xmlns="http://www.w3.org/2000/svg" in="SourceGraphic" stdDeviation="0"/><feOffset xmlns="http://www.w3.org/2000/svg" dx="0" dy="0" result="pf_100_offsetBlur"/><feFlood xmlns="http://www.w3.org/2000/svg" flood-color="#FFFFFF" flood-opacity="1"/><feComposite xmlns="http://www.w3.org/2000/svg" in2="pf_100_offsetBlur" operator="in" result="pf_100_dropShadow"/><feBlend xmlns="http://www.w3.org/2000/svg" in="SourceGraphic" in2="pf_100_dropShadow" mode="normal"/></filter></defs><g filter="url(#XM73uclmjR3089CqCsre5N5SewqbzXn9)"><path d=" M 445.675 709.68 Q 445.028 677.021 438.208 660.079 C 448.302 665.049 471.927 677.424 493.255 672.882 Q 465.458 640.862 460.853 625.421 Q 484.443 637.065 521.255 625.421 Q 476.255 603.659 458.21 587.513 Q 490.255 587.659 508.113 570 C 475.255 568.659 466.777 557.714 445.675 555.659 C 353.255 546.659 357.096 628.364 325.693 627.825 C 317.998 627.693 313.888 621.307 313.329 608.639 C 303.84 616.317 297.826 625.768 295.255 636.964 C 286.465 634.168 281 627.523 278.827 617.001 C 269.912 627.226 266.181 635.869 267.6 642.901 C 258.506 641.864 252.377 635.285 249.181 623.134 C 239.762 631.81 235.101 641.501 235.167 652.179 C 224.819 647.538 218.645 640.309 216.612 630.464 C 207.454 638.233 202.446 647.447 201.492 658.023 C 193.309 653.872 188.832 647.014 188.027 637.421 C 174.687 647.373 174.254 660.936 174.941 665.399 C 176.207 673.629 191.786 686.169 200.412 685.677 C 247.241 683.004 335.447 652.707 383.967 672.882 Q 397.678 678.583 445.675 709.68 Z " fill="rgb(0,0,0)" vector-effect="non-scaling-stroke" stroke-width="10" stroke="rgb(255,255,255)" stroke-linejoin="miter" stroke-linecap="round" stroke-miterlimit="3"/></g><defs><filter id="vhiLtuBm4fx3j19XP60SxoXhzuf19Asj" x="-200%" y="-200%" width="400%" height="400%" filterUnits="objectBoundingBox" color-interpolation-filters="sRGB"><feGaussianBlur xmlns="http://www.w3.org/2000/svg" in="SourceGraphic" stdDeviation="0"/><feOffset xmlns="http://www.w3.org/2000/svg" dx="0" dy="0" result="pf_100_offsetBlur"/><feFlood xmlns="http://www.w3.org/2000/svg" flood-color="#FFFFFF" flood-opacity="1"/><feComposite xmlns="http://www.w3.org/2000/svg" in2="pf_100_offsetBlur" operator="in" result="pf_100_dropShadow"/><feBlend xmlns="http://www.w3.org/2000/svg" in="SourceGraphic" in2="pf_100_dropShadow" mode="normal"/></filter></defs><g filter="url(#vhiLtuBm4fx3j19XP60SxoXhzuf19Asj)"><path d=" M 217.576 281.299 C 315.825 382.605 507.525 422.416 507.755 413.338 C 507.984 404.26 334.864 372.215 217.576 281.299 Z " fill="rgb(255,255,255)"/></g><defs><filter id="1NVSE5THWUlpB5ngWUjvLwWPxWGbSb7Y" x="-200%" y="-200%" width="400%" height="400%" filterUnits="objectBoundingBox" color-interpolation-filters="sRGB"><feGaussianBlur xmlns="http://www.w3.org/2000/svg" in="SourceGraphic" stdDeviation="0"/><feOffset xmlns="http://www.w3.org/2000/svg" dx="0" dy="0" result="pf_100_offsetBlur"/><feFlood xmlns="http://www.w3.org/2000/svg" flood-color="#FFFFFF" flood-opacity="1"/><feComposite xmlns="http://www.w3.org/2000/svg" in2="pf_100_offsetBlur" operator="in" result="pf_100_dropShadow"/><feBlend xmlns="http://www.w3.org/2000/svg" in="SourceGraphic" in2="pf_100_dropShadow" mode="normal"/></filter></defs><g filter="url(#1NVSE5THWUlpB5ngWUjvLwWPxWGbSb7Y)"><path d=" M 330.381 379.831 C 378.04 391.445 420.965 383.396 459.187 355.658 C 414.13 346.912 371.185 354.978 330.381 379.831 Z " fill="rgb(0,0,0)" vector-effect="non-scaling-stroke" stroke-width="10" stroke="rgb(255,255,255)" stroke-linejoin="miter" stroke-linecap="round" stroke-miterlimit="3"/></g><defs><filter id="jH1lxq8fk2NtPJmYCrDMx3rpvV17SBhV" x="-200%" y="-200%" width="400%" height="400%" filterUnits="objectBoundingBox" color-interpolation-filters="sRGB"><feGaussianBlur xmlns="http://www.w3.org/2000/svg" in="SourceGraphic" stdDeviation="0"/><feOffset xmlns="http://www.w3.org/2000/svg" dx="0" dy="0" result="pf_100_offsetBlur"/><feFlood xmlns="http://www.w3.org/2000/svg" flood-color="#FFFFFF" flood-opacity="1"/><feComposite xmlns="http://www.w3.org/2000/svg" in2="pf_100_offsetBlur" operator="in" result="pf_100_dropShadow"/><feBlend xmlns="http://www.w3.org/2000/svg" in="SourceGraphic" in2="pf_100_dropShadow" mode="normal"/></filter></defs><g filter="url(#jH1lxq8fk2NtPJmYCrDMx3rpvV17SBhV)"><path d=" M 373.285 412.933 C 420.944 424.547 463.869 416.498 502.091 388.76 C 457.034 380.014 414.089 388.081 373.285 412.933 Z " fill="rgb(0,0,0)" vector-effect="non-scaling-stroke" stroke-width="10" stroke="rgb(255,255,255)" stroke-linejoin="miter" stroke-linecap="round" stroke-miterlimit="3"/></g></g></g></svg>